<svg width="44" height="32" viewBox="0 0 44 32" fill="none" xmlns="http://www.w3.org/2000/svg">
<path d="M40.75 0.375H3.25C2.4212 0.375 1.62634 0.70424 1.04029 1.29029C0.45424 1.87634 0.125 2.6712 0.125 3.5V28.5C0.125 29.3288 0.45424 30.1237 1.04029 30.7097C1.62634 31.2958 2.4212 31.625 3.25 31.625H40.75C41.5788 31.625 42.3737 31.2958 42.9597 30.7097C43.5458 30.1237 43.875 29.3288 43.875 28.5V3.5C43.875 2.6712 43.5458 1.87634 42.9597 1.29029C42.3737 0.70424 41.5788 0.375 40.75 0.375ZM37.3125 3.5L22 14.0938L6.6875 3.5H37.3125ZM3.25 28.5V4.92188L21.1094 17.2812C21.3709 17.4627 21.6817 17.5599 22 17.5599C22.3183 17.5599 22.6291 17.4627 22.8906 17.2812L40.75 4.92188V28.5H3.25Z" fill="#F0F0F0"/>
</svg>
