<svg width="50" height="38" viewBox="0 0 50 38" fill="none" xmlns="http://www.w3.org/2000/svg">
<path d="M44.6429 0H5.35714C2.39955 0 0 1.82366 0 4.07143V33.9286C0 36.1763 2.39955 38 5.35714 38H44.6429C47.6004 38 50 36.1763 50 33.9286V4.07143C50 1.82366 47.6004 0 44.6429 0ZM30.9487 32.546C30.0112 32.6732 29.6652 32.2321 29.6652 31.8674C29.6652 31.4094 29.6875 29.0683 29.6875 27.1768C29.6875 25.8536 29.1071 25.0138 28.4263 24.5728C32.5558 24.225 36.9085 23.7924 36.9085 18.3723C36.9085 16.8286 36.183 16.0567 35 15.0643C35.1897 14.6996 35.8259 13.1982 34.8103 11.2473C33.2589 10.8826 29.7098 12.7656 29.7098 12.7656C28.2366 12.4518 26.6406 12.2906 25.067 12.2906C23.4933 12.2906 21.8973 12.4518 20.4241 12.7656C20.4241 12.7656 16.875 10.8826 15.3237 11.2473C14.308 13.1897 14.933 14.6911 15.1339 15.0643C13.9509 16.0567 13.3929 16.8286 13.3929 18.3723C13.3929 23.767 17.5558 24.225 21.6853 24.5728C21.1496 24.9375 20.6696 25.5652 20.5022 26.4643C19.442 26.829 16.7299 27.4567 15.1116 25.2853C14.096 23.9451 12.2656 23.8348 12.2656 23.8348C10.4576 23.8179 12.1429 24.7 12.1429 24.7C13.3482 25.1241 14.1964 26.7527 14.1964 26.7527C15.279 29.2719 20.4576 28.4237 20.4576 28.4237C20.4576 29.6027 20.4799 31.5196 20.4799 31.8674C20.4799 32.2321 20.1451 32.6732 19.1964 32.546C11.8304 30.6714 6.67411 25.3446 6.67411 19.1187C6.67411 11.3321 14.5089 5.42009 24.7545 5.42009C35 5.42009 43.3036 11.3321 43.3036 19.1187C43.3147 25.3446 38.3147 30.6799 30.9487 32.546ZM20 27.3634C19.7879 27.3973 19.5871 27.3295 19.5647 27.2192C19.5424 27.092 19.6875 26.9817 19.8996 26.9478C20.1116 26.9308 20.3125 26.9987 20.3348 27.1089C20.3683 27.2192 20.2232 27.3295 20 27.3634ZM18.9397 27.2871C18.9397 27.3973 18.7723 27.4906 18.5491 27.4906C18.3036 27.5076 18.1362 27.4143 18.1362 27.2871C18.1362 27.1768 18.3036 27.0835 18.5268 27.0835C18.7388 27.0665 18.9397 27.1598 18.9397 27.2871ZM17.4107 27.1937C17.3661 27.304 17.1429 27.3549 16.9531 27.304C16.7411 27.2701 16.596 27.1429 16.6406 27.0326C16.6853 26.9223 16.9085 26.8714 17.0982 26.9054C17.3214 26.9563 17.4665 27.0835 17.4107 27.1937ZM16.0379 26.7357C15.9375 26.829 15.7254 26.8121 15.558 26.6848C15.3906 26.5746 15.346 26.4134 15.4576 26.3371C15.558 26.2437 15.7701 26.2607 15.9375 26.3879C16.0826 26.4982 16.1384 26.6679 16.0379 26.7357ZM15.0223 25.9638C14.9219 26.0147 14.7321 25.9638 14.6094 25.8366C14.4866 25.7094 14.4866 25.5652 14.6094 25.5058C14.7321 25.4295 14.9219 25.4888 15.0223 25.6161C15.1451 25.7433 15.1451 25.896 15.0223 25.9638V25.9638ZM14.2969 25.1411C14.1964 25.2174 14.029 25.175 13.9062 25.0902C13.7835 24.9799 13.7612 24.8527 13.8616 24.7933C13.9621 24.717 14.1295 24.7594 14.2522 24.8442C14.375 24.9545 14.3973 25.0817 14.2969 25.1411ZM13.5491 24.5134C13.5045 24.5897 13.3594 24.6067 13.2366 24.5473C13.0915 24.4964 13.0246 24.4031 13.0692 24.3268C13.1138 24.2759 13.2366 24.2504 13.3817 24.2929C13.5268 24.3522 13.5938 24.4455 13.5491 24.5134Z" fill="white"/>
</svg>
