<svg width="16" height="16" viewBox="0 0 16 16" fill="none" xmlns="http://www.w3.org/2000/svg">
<path d="M8 16C12.4183 16 16 12.4183 16 8C16 3.58172 12.4183 0 8 0C3.58172 0 0 3.58172 0 8C0 12.4183 3.58172 16 8 16Z" fill="#3796F2"/>
<path d="M7.91675 8.17004H11.0834V15.77H7.91675V8.17004Z" fill="white"/>
<path d="M9.50008 6.39665C10.3745 6.39665 11.0834 5.68776 11.0834 4.81331C11.0834 3.93886 10.3745 3.22998 9.50008 3.22998C8.62563 3.22998 7.91675 3.93886 7.91675 4.81331C7.91675 5.68776 8.62563 6.39665 9.50008 6.39665Z" fill="white"/>
</svg>
