<svg width="24" height="24" viewBox="0 0 24 24" fill="none" xmlns="http://www.w3.org/2000/svg">
<path d="M7.34098 18.043L5.89247 16.5523C5.49401 16.1961 5.35338 15.6148 5.48932 15.0851C5.62996 14.6679 5.81747 14.1241 6.08467 13.5006H1.12505C0.720972 13.5006 0.347548 13.285 0.147476 12.9334C0.0491759 12.761 -0.00169437 12.5657 4.30586e-05 12.3672C0.00178048 12.1688 0.0560636 11.9743 0.157367 11.8037L2.61716 7.65505C3.22469 6.62844 4.32818 5.9581 5.52214 5.9581H9.37545C9.48795 5.81278 9.60046 5.63933 9.71296 5.47058C13.5522 -0.190769 19.2712 -0.381653 22.6839 0.247297C23.2324 0.347567 23.6543 0.770211 23.7527 1.31539C24.3809 4.72992 24.1933 10.4489 18.5306 14.2882C18.3665 14.4007 18.1462 14.5132 18.0009 14.5835V18.479C18.0009 19.6743 17.3727 20.7759 16.3461 21.3853L12.1975 23.8417C11.8506 24.048 11.4193 24.0527 11.0677 23.8558C10.7161 23.6542 10.5005 23.2792 10.5005 22.876V17.8508C9.83953 18.0758 9.26294 18.268 8.82698 18.4087C8.30196 18.5774 7.73006 18.4321 7.34098 18.043ZM18.0009 7.83318C19.0368 7.83318 19.8759 7.03627 19.8759 5.9581C19.8759 4.9643 19.0368 4.08301 18.0009 4.08301C16.9649 4.08301 16.1258 4.9643 16.1258 5.9581C16.1258 7.03627 16.9649 7.83318 18.0009 7.83318Z" fill="url(#paint0_linear_319_3)"/>
<defs>
<linearGradient id="paint0_linear_319_3" x1="12" y1="0" x2="12" y2="24" gradientUnits="userSpaceOnUse">
<stop stop-color="#B6F829"/>
<stop offset="1" stop-color="#67DD0A" stop-opacity="0.67"/>
</linearGradient>
</defs>
</svg>
